<svg xmlns="http://www.w3.org/2000/svg" xmlns:xlink="http://www.w3.org/1999/xlink" viewBox="0 0 1000 1000" width="1000" height="1000" preserveAspectRatio="xMidYMid meet" style="width: 100%; height: 100%; transform: translate3d(0px, 0px, 0px); content-visibility: visible;"><defs><clipPath id="__lottie_element_512"><rect width="1000" height="1000" x="0" y="0"></rect></clipPath><clipPath id="__lottie_element_514"><path d="M0,0 L1000,0 L1000,1000 L0,1000z"></path></clipPath><filter id="__lottie_element_520"><feColorMatrix type="matrix" color-interpolation-filters="linearRGB" values="0.3333 0.3333 0.3333 0 0 0.3333 0.3333 0.3333 0 0 0.3333 0.3333 0.3333 0 0 0 0 0 1 0" result="filter_result_0_tint_1"></feColorMatrix><feColorMatrix type="matrix" color-interpolation-filters="sRGB" values="-0.25943866185843945 0 0 0 0.2745097875595093 -0.75442935526371 0 0 0 1 -0.06920421123504639 0 0 0 0.8378316760063171 0 0 0 1 0" result="filter_result_0_tint_2"></feColorMatrix><feMerge result="filter_result_0"><feMergeNode in="SourceGraphic"></feMergeNode><feMergeNode in="filter_result_0_tint_1"></feMergeNode><feMergeNode in="filter_result_0_tint_2"></feMergeNode></feMerge></filter><linearGradient id="__lottie_element_521" spreadMethod="pad" gradientUnits="userSpaceOnUse" x1="-394" y1="0" x2="365" y2="0"><stop offset="0%" stop-color="rgb(255,255,255)"></stop><stop offset="100%" stop-color="rgb(0,0,0)"></stop></linearGradient><g id="__lottie_element_522"><g transform="matrix(0.6777004599571228,-0.28341642022132874,0.410799115896225,0.28314390778541565,500,500)" opacity="0.5" style="display: block;"><g opacity="1" transform="matrix(1,0,0,1,0,0)"><path fill="url(#__lottie_element_525)" fill-opacity="1" d=" M0,-500 C276.1419982910156,-500 500,-276.1419982910156 500,0 C500,276.1419982910156 276.1419982910156,500 0,500 C-276.1419982910156,500 -500,276.1419982910156 -500,0 C-500,-276.1419982910156 -276.1419982910156,-500 0,-500z"></path><g opacity="1" transform="matrix(1,0,0,1,0,0)"></g></g></g></g><linearGradient id="__lottie_element_525" spreadMethod="pad" gradientUnits="userSpaceOnUse" x1="-512.9749755859375" y1="2.5" x2="549.5889892578125" y2="-14.873000144958496"><stop offset="0%" stop-color="rgb(255,255,255)"></stop><stop offset="100%" stop-color="rgb(0,0,0)"></stop></linearGradient><filter id="__lottie_element_528"><feColorMatrix type="matrix" color-interpolation-filters="linearRGB" values="0.3333 0.3333 0.3333 0 0 0.3333 0.3333 0.3333 0 0 0.3333 0.3333 0.3333 0 0 0 0 0 1 0" result="filter_result_0_tint_1"></feColorMatrix><feColorMatrix type="matrix" color-interpolation-filters="sRGB" values="-0.25943866185843945 0 0 0 0.2745097875595093 -0.75442935526371 0 0 0 1 -0.06920421123504639 0 0 0 0.8378316760063171 0 0 0 1 0" result="filter_result_0_tint_2"></feColorMatrix><feMerge result="filter_result_0"><feMergeNode in="SourceGraphic"></feMergeNode><feMergeNode in="filter_result_0_tint_1"></feMergeNode><feMergeNode in="filter_result_0_tint_2"></feMergeNode></feMerge></filter><linearGradient id="__lottie_element_529" spreadMethod="pad" gradientUnits="userSpaceOnUse" x1="-394" y1="0" x2="365" y2="0"><stop offset="0%" stop-color="rgb(255,255,255)"></stop><stop offset="100%" stop-color="rgb(0,0,0)"></stop></linearGradient><g id="__lottie_element_530"><g transform="matrix(0.06162557750940323,-0.5966999530792236,-0.33997970819473267,-0.2361224889755249,500,500)" opacity="0.5" style="display: block;"><g opacity="1" transform="matrix(1,0,0,1,0,0)"><path fill="url(#__lottie_element_533)" fill-opacity="1" d=" M0,-500 C276.1419982910156,-500 500,-276.1419982910156 500,0 C500,276.1419982910156 276.1419982910156,500 0,500 C-276.1419982910156,500 -500,276.1419982910156 -500,0 C-500,-276.1419982910156 -276.1419982910156,-500 0,-500z"></path><g opacity="1" transform="matrix(1,0,0,1,0,0)"></g></g></g></g><linearGradient id="__lottie_element_533" spreadMethod="pad" gradientUnits="userSpaceOnUse" x1="-512.9749755859375" y1="2.5" x2="549.5889892578125" y2="-14.873000144958496"><stop offset="0%" stop-color="rgb(255,255,255)"></stop><stop offset="100%" stop-color="rgb(0,0,0)"></stop></linearGradient><filter id="__lottie_element_536"><feColorMatrix type="matrix" color-interpolation-filters="linearRGB" values="0.3333 0.3333 0.3333 0 0 0.3333 0.3333 0.3333 0 0 0.3333 0.3333 0.3333 0 0 0 0 0 1 0" result="filter_result_0_tint_1"></feColorMatrix><feColorMatrix type="matrix" color-interpolation-filters="sRGB" values="-0.25943866185843945 0 0 0 0.2745097875595093 -0.75442935526371 0 0 0 1 -0.06920421123504639 0 0 0 0.8378316760063171 0 0 0 1 0" result="filter_result_0_tint_2"></feColorMatrix><feMerge result="filter_result_0"><feMergeNode in="SourceGraphic"></feMergeNode><feMergeNode in="filter_result_0_tint_1"></feMergeNode><feMergeNode in="filter_result_0_tint_2"></feMergeNode></feMerge></filter><linearGradient id="__lottie_element_537" spreadMethod="pad" gradientUnits="userSpaceOnUse" x1="-394" y1="0" x2="365" y2="0"><stop offset="0%" stop-color="rgb(255,255,255)"></stop><stop offset="100%" stop-color="rgb(0,0,0)"></stop></linearGradient><g id="__lottie_element_538"><g transform="matrix(0.4935949444770813,-0.08934581279754639,-0.15278036892414093,-0.3485872745513916,500,500)" opacity="0.5" style="display: block;"><g opacity="1" transform="matrix(1,0,0,1,0,0)"><path fill="url(#__lottie_element_541)" fill-opacity="1" d=" M0,-500 C276.1419982910156,-500 500,-276.1419982910156 500,0 C500,276.1419982910156 276.1419982910156,500 0,500 C-276.1419982910156,500 -500,276.1419982910156 -500,0 C-500,-276.1419982910156 -276.1419982910156,-500 0,-500z"></path><g opacity="1" transform="matrix(1,0,0,1,0,0)"></g></g></g></g><linearGradient id="__lottie_element_541" spreadMethod="pad" gradientUnits="userSpaceOnUse" x1="-512.9749755859375" y1="2.5" x2="549.5889892578125" y2="-14.873000144958496"><stop offset="0%" stop-color="rgb(255,255,255)"></stop><stop offset="100%" stop-color="rgb(0,0,0)"></stop></linearGradient><filter id="__lottie_element_544"><feColorMatrix type="matrix" color-interpolation-filters="linearRGB" values="0.3333 0.3333 0.3333 0 0 0.3333 0.3333 0.3333 0 0 0.3333 0.3333 0.3333 0 0 0 0 0 1 0" result="filter_result_0_tint_1"></feColorMatrix><feColorMatrix type="matrix" color-interpolation-filters="sRGB" values="-0.25943866185843945 0 0 0 0.2745097875595093 -0.75442935526371 0 0 0 1 -0.06920421123504639 0 0 0 0.8378316760063171 0 0 0 1 0" result="filter_result_0_tint_2"></feColorMatrix><feMerge result="filter_result_0"><feMergeNode in="SourceGraphic"></feMergeNode><feMergeNode in="filter_result_0_tint_1"></feMergeNode><feMergeNode in="filter_result_0_tint_2"></feMergeNode></feMerge></filter><linearGradient id="__lottie_element_545" spreadMethod="pad" gradientUnits="userSpaceOnUse" x1="-394" y1="0" x2="365" y2="0"><stop offset="0%" stop-color="rgb(255,255,255)"></stop><stop offset="100%" stop-color="rgb(0,0,0)"></stop></linearGradient><g id="__lottie_element_546"><g transform="matrix(-0.4131126403808594,-0.6255328059196472,-0.6557123064994812,0.37249767780303955,500,500)" opacity="0.5" style="display: block;"><g opacity="1" transform="matrix(1,0,0,1,0,0)"><path fill="url(#__lottie_element_549)" fill-opacity="1" d=" M0,-500 C276.1419982910156,-500 500,-276.1419982910156 500,0 C500,276.1419982910156 276.1419982910156,500 0,500 C-276.1419982910156,500 -500,276.1419982910156 -500,0 C-500,-276.1419982910156 -276.1419982910156,-500 0,-500z"></path><g opacity="1" transform="matrix(1,0,0,1,0,0)"></g></g></g></g><linearGradient id="__lottie_element_549" spreadMethod="pad" gradientUnits="userSpaceOnUse" x1="-512.9749755859375" y1="2.5" x2="549.5889892578125" y2="-14.873000144958496"><stop offset="0%" stop-color="rgb(255,255,255)"></stop><stop offset="100%" stop-color="rgb(0,0,0)"></stop></linearGradient><filter id="__lottie_element_552"><feColorMatrix type="matrix" color-interpolation-filters="linearRGB" values="0.3333 0.3333 0.3333 0 0 0.3333 0.3333 0.3333 0 0 0.3333 0.3333 0.3333 0 0 0 0 0 1 0" result="filter_result_0_tint_1"></feColorMatrix><feColorMatrix type="matrix" color-interpolation-filters="sRGB" values="-0.25943866185843945 0 0 0 0.2745097875595093 -0.75442935526371 0 0 0 1 -0.06920421123504639 0 0 0 0.8378316760063171 0 0 0 1 0" result="filter_result_0_tint_2"></feColorMatrix><feMerge result="filter_result_0"><feMergeNode in="SourceGraphic"></feMergeNode><feMergeNode in="filter_result_0_tint_1"></feMergeNode><feMergeNode in="filter_result_0_tint_2"></feMergeNode></feMerge></filter><linearGradient id="__lottie_element_553" spreadMethod="pad" gradientUnits="userSpaceOnUse" x1="-394" y1="0" x2="365" y2="0"><stop offset="0%" stop-color="rgb(255,255,255)"></stop><stop offset="100%" stop-color="rgb(0,0,0)"></stop></linearGradient><g id="__lottie_element_554"><g transform="matrix(-0.4234898090362549,-0.5194107294082642,-0.4823717474937439,0.4687255322933197,500,500)" opacity="0.5" style="display: block;"><g opacity="1" transform="matrix(1,0,0,1,0,0)"><path fill="url(#__lottie_element_557)" fill-opacity="1" d=" M0,-500 C276.1419982910156,-500 500,-276.1419982910156 500,0 C500,276.1419982910156 276.1419982910156,500 0,500 C-276.1419982910156,500 -500,276.1419982910156 -500,0 C-500,-276.1419982910156 -276.1419982910156,-500 0,-500z"></path><g opacity="1" transform="matrix(1,0,0,1,0,0)"></g></g></g></g><linearGradient id="__lottie_element_557" spreadMethod="pad" gradientUnits="userSpaceOnUse" x1="-512.9749755859375" y1="2.5" x2="549.5889892578125" y2="-14.873000144958496"><stop offset="0%" stop-color="rgb(255,255,255)"></stop><stop offset="100%" stop-color="rgb(0,0,0)"></stop></linearGradient><filter id="__lottie_element_560"><feColorMatrix type="matrix" color-interpolation-filters="linearRGB" values="0.3333 0.3333 0.3333 0 0 0.3333 0.3333 0.3333 0 0 0.3333 0.3333 0.3333 0 0 0 0 0 1 0" result="filter_result_0_tint_1"></feColorMatrix><feColorMatrix type="matrix" color-interpolation-filters="sRGB" values="-0.25943866185843945 0 0 0 0.2745097875595093 -0.75442935526371 0 0 0 1 -0.06920421123504639 0 0 0 0.8378316760063171 0 0 0 1 0" result="filter_result_0_tint_2"></feColorMatrix><feMerge result="filter_result_0"><feMergeNode in="SourceGraphic"></feMergeNode><feMergeNode in="filter_result_0_tint_1"></feMergeNode><feMergeNode in="filter_result_0_tint_2"></feMergeNode></feMerge></filter><linearGradient id="__lottie_element_561" spreadMethod="pad" gradientUnits="userSpaceOnUse" x1="-394" y1="0" x2="365" y2="0"><stop offset="0%" stop-color="rgb(255,255,255)"></stop><stop offset="100%" stop-color="rgb(0,0,0)"></stop></linearGradient><g id="__lottie_element_562"><g transform="matrix(-0.6196579933166504,-0.03951897844672203,-0.005255457013845444,0.7980173826217651,500,500)" opacity="0.5" style="display: block;"><g opacity="1" transform="matrix(1,0,0,1,0,0)"><path fill="url(#__lottie_element_565)" fill-opacity="1" d=" M0,-500 C276.1419982910156,-500 500,-276.1419982910156 500,0 C500,276.1419982910156 276.1419982910156,500 0,500 C-276.1419982910156,500 -500,276.1419982910156 -500,0 C-500,-276.1419982910156 -276.1419982910156,-500 0,-500z"></path><g opacity="1" transform="matrix(1,0,0,1,0,0)"></g></g></g></g><linearGradient id="__lottie_element_565" spreadMethod="pad" gradientUnits="userSpaceOnUse" x1="-512.9749755859375" y1="2.5" x2="549.5889892578125" y2="-14.873000144958496"><stop offset="0%" stop-color="rgb(255,255,255)"></stop><stop offset="100%" stop-color="rgb(0,0,0)"></stop></linearGradient><g id="__lottie_element_569"><g filter="url(#__lottie_element_571)" transform="matrix(0.4653750956058502,-0.6074488759040833,-0.6076450943946838,-0.46546950936317444,500,500)" opacity="0.5" style="display: block;"><path fill="url(#__lottie_element_572)" fill-opacity="1" d=" M0,-500 C276.1419982910156,-500 500,-276.1419982910156 500,0 C500,276.1419982910156 276.1419982910156,500 0,500 C-276.1419982910156,500 -500,276.1419982910156 -500,0 C-500,-276.1419982910156 -276.1419982910156,-500 0,-500z"></path><g opacity="1" transform="matrix(1,0,0,1,0,0)"><g opacity="1" transform="matrix(1,0,0,1,0,0)"></g></g></g></g><filter id="__lottie_element_571"><feColorMatrix type="matrix" color-interpolation-filters="linearRGB" values="0.3333 0.3333 0.3333 0 0 0.3333 0.3333 0.3333 0 0 0.3333 0.3333 0.3333 0 0 0 0 0 1 0" result="filter_result_0_tint_1"></feColorMatrix><feColorMatrix type="matrix" color-interpolation-filters="sRGB" values="1 0 0 0 0 1 0 0 0 0 1 0 0 0 0 0 0 0 1 0" result="filter_result_0_tint_2"></feColorMatrix><feMerge result="filter_result_0"><feMergeNode in="SourceGraphic"></feMergeNode><feMergeNode in="filter_result_0_tint_1"></feMergeNode><feMergeNode in="filter_result_0_tint_2"></feMergeNode></feMerge></filter><radialGradient id="__lottie_element_572" spreadMethod="pad" gradientUnits="userSpaceOnUse" cx="10" cy="0" r="421" fx="10" fy="0"><stop offset="0%" stop-color="rgb(255,255,255)"></stop><stop offset="100%" stop-color="rgb(0,0,0)"></stop></radialGradient><g id="__lottie_element_576"><g filter="url(#__lottie_element_578)" transform="matrix(0.21276400983333588,-0.2777184247970581,-0.27780815958976746,-0.21280714869499207,500,500)" opacity="0.5" style="display: block;"><path fill="url(#__lottie_element_579)" fill-opacity="1" d=" M0,-500 C276.1419982910156,-500 500,-276.1419982910156 500,0 C500,276.1419982910156 276.1419982910156,500 0,500 C-276.1419982910156,500 -500,276.1419982910156 -500,0 C-500,-276.1419982910156 -276.1419982910156,-500 0,-500z"></path><g opacity="1" transform="matrix(1,0,0,1,0,0)"><g opacity="1" transform="matrix(1,0,0,1,0,0)"></g></g></g></g><filter id="__lottie_element_578"><feColorMatrix type="matrix" color-interpolation-filters="linearRGB" values="0.3333 0.3333 0.3333 0 0 0.3333 0.3333 0.3333 0 0 0.3333 0.3333 0.3333 0 0 0 0 0 1 0" result="filter_result_0_tint_1"></feColorMatrix><feColorMatrix type="matrix" color-interpolation-filters="sRGB" values="1 0 0 0 0 1 0 0 0 0 1 0 0 0 0 0 0 0 1 0" result="filter_result_0_tint_2"></feColorMatrix><feMerge result="filter_result_0"><feMergeNode in="SourceGraphic"></feMergeNode><feMergeNode in="filter_result_0_tint_1"></feMergeNode><feMergeNode in="filter_result_0_tint_2"></feMergeNode></feMerge></filter><radialGradient id="__lottie_element_579" spreadMethod="pad" gradientUnits="userSpaceOnUse" cx="10" cy="0" r="421" fx="10" fy="0"><stop offset="0%" stop-color="rgb(255,255,255)"></stop><stop offset="100%" stop-color="rgb(0,0,0)"></stop></radialGradient><g id="__lottie_element_583"><g filter="url(#__lottie_element_585)" transform="matrix(0.09116720408201218,-0.11899951100349426,-0.11903796344995499,-0.09118569642305374,500,500)" opacity="0.5" style="display: block;"><path fill="url(#__lottie_element_586)" fill-opacity="1" d=" M0,-500 C276.1419982910156,-500 500,-276.1419982910156 500,0 C500,276.1419982910156 276.1419982910156,500 0,500 C-276.1419982910156,500 -500,276.1419982910156 -500,0 C-500,-276.1419982910156 -276.1419982910156,-500 0,-500z"></path><g opacity="1" transform="matrix(1,0,0,1,0,0)"><g opacity="1" transform="matrix(1,0,0,1,0,0)"></g></g></g></g><filter id="__lottie_element_585"><feColorMatrix type="matrix" color-interpolation-filters="linearRGB" values="0.3333 0.3333 0.3333 0 0 0.3333 0.3333 0.3333 0 0 0.3333 0.3333 0.3333 0 0 0 0 0 1 0" result="filter_result_0_tint_1"></feColorMatrix><feColorMatrix type="matrix" color-interpolation-filters="sRGB" values="1 0 0 0 0 1 0 0 0 0 1 0 0 0 0 0 0 0 1 0" result="filter_result_0_tint_2"></feColorMatrix><feMerge result="filter_result_0"><feMergeNode in="SourceGraphic"></feMergeNode><feMergeNode in="filter_result_0_tint_1"></feMergeNode><feMergeNode in="filter_result_0_tint_2"></feMergeNode></feMerge></filter><radialGradient id="__lottie_element_586" spreadMethod="pad" gradientUnits="userSpaceOnUse" cx="10" cy="0" r="421" fx="10" fy="0"><stop offset="0%" stop-color="rgb(255,255,255)"></stop><stop offset="100%" stop-color="rgb(0,0,0)"></stop></radialGradient><filter id="__lottie_element_589"><feColorMatrix type="matrix" color-interpolation-filters="linearRGB" values="0.3333 0.3333 0.3333 0 0 0.3333 0.3333 0.3333 0 0 0.3333 0.3333 0.3333 0 0 0 0 0 1 0" result="filter_result_0_tint_1"></feColorMatrix><feColorMatrix type="matrix" color-interpolation-filters="sRGB" values="-0.25943866185843945 0 0 0 0.2745097875595093 -0.75442935526371 0 0 0 1 -0.06920421123504639 0 0 0 0.8378316760063171 0 0 0 1 0" result="filter_result_0_tint_2"></feColorMatrix><feMerge result="filter_result_0"><feMergeNode in="SourceGraphic"></feMergeNode><feMergeNode in="filter_result_0_tint_1"></feMergeNode><feMergeNode in="filter_result_0_tint_2"></feMergeNode></feMerge></filter><linearGradient id="__lottie_element_590" spreadMethod="pad" gradientUnits="userSpaceOnUse" x1="-394" y1="0" x2="365" y2="0"><stop offset="0%" stop-color="rgb(255,255,255)"></stop><stop offset="100%" stop-color="rgb(0,0,0)"></stop></linearGradient><g id="__lottie_element_591"><g transform="matrix(-0.4894523322582245,-0.3455405831336975,-0.3216424882411957,0.36242327094078064,500,500)" opacity="0.5" style="display: block;"><g opacity="1" transform="matrix(1,0,0,1,0,0)"><path fill="url(#__lottie_element_594)" fill-opacity="1" d=" M0,-500 C276.1419982910156,-500 500,-276.1419982910156 500,0 C500,276.1419982910156 276.1419982910156,500 0,500 C-276.1419982910156,500 -500,276.1419982910156 -500,0 C-500,-276.1419982910156 -276.1419982910156,-500 0,-500z"></path><g opacity="1" transform="matrix(1,0,0,1,0,0)"></g></g></g></g><linearGradient id="__lottie_element_594" spreadMethod="pad" gradientUnits="userSpaceOnUse" x1="-512.9749755859375" y1="2.5" x2="549.5889892578125" y2="-14.873000144958496"><stop offset="0%" stop-color="rgb(255,255,255)"></stop><stop offset="100%" stop-color="rgb(0,0,0)"></stop></linearGradient><filter id="__lottie_element_597"><feColorMatrix type="matrix" color-interpolation-filters="linearRGB" values="0.3333 0.3333 0.3333 0 0 0.3333 0.3333 0.3333 0 0 0.3333 0.3333 0.3333 0 0 0 0 0 1 0" result="filter_result_0_tint_1"></feColorMatrix><feColorMatrix type="matrix" color-interpolation-filters="sRGB" values="-0.25943866185843945 0 0 0 0.2745097875595093 -0.75442935526371 0 0 0 1 -0.06920421123504639 0 0 0 0.8378316760063171 0 0 0 1 0" result="filter_result_0_tint_2"></feColorMatrix><feMerge result="filter_result_0"><feMergeNode in="SourceGraphic"></feMergeNode><feMergeNode in="filter_result_0_tint_1"></feMergeNode><feMergeNode in="filter_result_0_tint_2"></feMergeNode></feMerge></filter><linearGradient id="__lottie_element_598" spreadMethod="pad" gradientUnits="userSpaceOnUse" x1="-394" y1="0" x2="365" y2="0"><stop offset="0%" stop-color="rgb(255,255,255)"></stop><stop offset="100%" stop-color="rgb(0,0,0)"></stop></linearGradient><g id="__lottie_element_599"><g transform="matrix(0.25520986318588257,-0.5161548256874084,-0.7364020347595215,-0.3082523047924042,500,500)" opacity="0.5" style="display: block;"><g opacity="1" transform="matrix(1,0,0,1,0,0)"><path fill="url(#__lottie_element_602)" fill-opacity="1" d=" M0,-500 C276.1419982910156,-500 500,-276.1419982910156 500,0 C500,276.1419982910156 276.1419982910156,500 0,500 C-276.1419982910156,500 -500,276.1419982910156 -500,0 C-500,-276.1419982910156 -276.1419982910156,-500 0,-500z"></path><g opacity="1" transform="matrix(1,0,0,1,0,0)"></g></g></g></g><linearGradient id="__lottie_element_602" spreadMethod="pad" gradientUnits="userSpaceOnUse" x1="-512.9749755859375" y1="2.5" x2="549.5889892578125" y2="-14.873000144958496"><stop offset="0%" stop-color="rgb(255,255,255)"></stop><stop offset="100%" stop-color="rgb(0,0,0)"></stop></linearGradient><filter id="__lottie_element_605"><feColorMatrix type="matrix" color-interpolation-filters="linearRGB" values="0.3333 0.3333 0.3333 0 0 0.3333 0.3333 0.3333 0 0 0.3333 0.3333 0.3333 0 0 0 0 0 1 0" result="filter_result_0_tint_1"></feColorMatrix><feColorMatrix type="matrix" color-interpolation-filters="sRGB" values="-0.25943866185843945 0 0 0 0.2745097875595093 -0.75442935526371 0 0 0 1 -0.06920421123504639 0 0 0 0.8378316760063171 0 0 0 1 0" result="filter_result_0_tint_2"></feColorMatrix><feMerge result="filter_result_0"><feMergeNode in="SourceGraphic"></feMergeNode><feMergeNode in="filter_result_0_tint_1"></feMergeNode><feMergeNode in="filter_result_0_tint_2"></feMergeNode></feMerge></filter><linearGradient id="__lottie_element_606" spreadMethod="pad" gradientUnits="userSpaceOnUse" x1="-394" y1="0" x2="365" y2="0"><stop offset="0%" stop-color="rgb(255,255,255)"></stop><stop offset="100%" stop-color="rgb(0,0,0)"></stop></linearGradient><g id="__lottie_element_607"><g transform="matrix(0.12555533647537231,-0.7752436995506287,0.7808632850646973,0.14527401328086853,500,500)" opacity="0.5" style="display: block;"><g opacity="1" transform="matrix(1,0,0,1,0,0)"><path fill="url(#__lottie_element_610)" fill-opacity="1" d=" M0,-500 C276.1419982910156,-500 500,-276.1419982910156 500,0 C500,276.1419982910156 276.1419982910156,500 0,500 C-276.1419982910156,500 -500,276.1419982910156 -500,0 C-500,-276.1419982910156 -276.1419982910156,-500 0,-500z"></path><g opacity="1" transform="matrix(1,0,0,1,0,0)"></g></g></g></g><linearGradient id="__lottie_element_610" spreadMethod="pad" gradientUnits="userSpaceOnUse" x1="-512.9749755859375" y1="2.5" x2="549.5889892578125" y2="-14.873000144958496"><stop offset="0%" stop-color="rgb(255,255,255)"></stop><stop offset="100%" stop-color="rgb(0,0,0)"></stop></linearGradient><filter id="__lottie_element_613"><feColorMatrix type="matrix" color-interpolation-filters="linearRGB" values="0.3333 0.3333 0.3333 0 0 0.3333 0.3333 0.3333 0 0 0.3333 0.3333 0.3333 0 0 0 0 0 1 0" result="filter_result_0_tint_1"></feColorMatrix><feColorMatrix type="matrix" color-interpolation-filters="sRGB" values="-0.25943866185843945 0 0 0 0.2745097875595093 -0.75442935526371 0 0 0 1 -0.06920421123504639 0 0 0 0.8378316760063171 0 0 0 1 0" result="filter_result_0_tint_2"></feColorMatrix><feMerge result="filter_result_0"><feMergeNode in="SourceGraphic"></feMergeNode><feMergeNode in="filter_result_0_tint_1"></feMergeNode><feMergeNode in="filter_result_0_tint_2"></feMergeNode></feMerge></filter><linearGradient id="__lottie_element_614" spreadMethod="pad" gradientUnits="userSpaceOnUse" x1="-394" y1="0" x2="365" y2="0"><stop offset="0%" stop-color="rgb(255,255,255)"></stop><stop offset="100%" stop-color="rgb(0,0,0)"></stop></linearGradient><g id="__lottie_element_615"><g transform="matrix(0.13589033484458923,-0.6842963695526123,-0.518979549407959,-0.3344106674194336,500,500)" opacity="0.5" style="display: block;"><g opacity="1" transform="matrix(1,0,0,1,0,0)"><path fill="url(#__lottie_element_618)" fill-opacity="1" d=" M0,-500 C276.1419982910156,-500 500,-276.1419982910156 500,0 C500,276.1419982910156 276.1419982910156,500 0,500 C-276.1419982910156,500 -500,276.1419982910156 -500,0 C-500,-276.1419982910156 -276.1419982910156,-500 0,-500z"></path><g opacity="1" transform="matrix(1,0,0,1,0,0)"></g></g></g></g><linearGradient id="__lottie_element_618" spreadMethod="pad" gradientUnits="userSpaceOnUse" x1="-512.9749755859375" y1="2.5" x2="549.5889892578125" y2="-14.873000144958496"><stop offset="0%" stop-color="rgb(255,255,255)"></stop><stop offset="100%" stop-color="rgb(0,0,0)"></stop></linearGradient><mask id="__lottie_element_615_3" mask-type="luminance"><use xlink:href="#__lottie_element_615"></use></mask><mask id="__lottie_element_607_3" mask-type="luminance"><use xlink:href="#__lottie_element_607"></use></mask><mask id="__lottie_element_599_3" mask-type="luminance"><use xlink:href="#__lottie_element_599"></use></mask><mask id="__lottie_element_591_3" mask-type="luminance"><use xlink:href="#__lottie_element_591"></use></mask><mask id="__lottie_element_583_3" mask-type="luminance"><use xlink:href="#__lottie_element_583"></use></mask><mask id="__lottie_element_576_3" mask-type="luminance"><use xlink:href="#__lottie_element_576"></use></mask><mask id="__lottie_element_569_3" mask-type="luminance"><use xlink:href="#__lottie_element_569"></use></mask><mask id="__lottie_element_562_3" mask-type="luminance"><use xlink:href="#__lottie_element_562"></use></mask><mask id="__lottie_element_554_3" mask-type="luminance"><use xlink:href="#__lottie_element_554"></use></mask><mask id="__lottie_element_546_3" mask-type="luminance"><use xlink:href="#__lottie_element_546"></use></mask><mask id="__lottie_element_538_3" mask-type="luminance"><use xlink:href="#__lottie_element_538"></use></mask><mask id="__lottie_element_530_3" mask-type="luminance"><use xlink:href="#__lottie_element_530"></use></mask><mask id="__lottie_element_522_3" mask-type="luminance"><use xlink:href="#__lottie_element_522"></use></mask></defs><g clip-path="url(#__lottie_element_512)"><g clip-path="url(#__lottie_element_514)" transform="matrix(0.5955100655555725,-0.8033478856086731,0.8033478856086731,0.5955100655555725,-199.428955078125,603.9189453125)" opacity="1" style="display: block;"><g mask="url(#__lottie_element_522_3)" style="mix-blend-mode: color-burn; display: block;"><g filter="url(#__lottie_element_520)" transform="matrix(0.6692279577255249,-0.27987319231033325,0.405663400888443,0.27960410714149475,500,500)" opacity="0.5"><path fill="url(#__lottie_element_521)" fill-opacity="1" d=" M0,-500 C276.1419982910156,-500 500,-276.1419982910156 500,0 C500,276.1419982910156 276.1419982910156,500 0,500 C-276.1419982910156,500 -500,276.1419982910156 -500,0 C-500,-276.1419982910156 -276.1419982910156,-500 0,-500z"></path><g opacity="1" transform="matrix(1,0,0,1,0,0)"><g opacity="1" transform="matrix(1,0,0,1,0,0)"></g></g></g></g><g mask="url(#__lottie_element_530_3)" style="mix-blend-mode: color-burn; display: block;"><g filter="url(#__lottie_element_528)" transform="matrix(0.06085515022277832,-0.5892401933670044,-0.3357293903827667,-0.2331705391407013,500,500)" opacity="0.5"><path fill="url(#__lottie_element_529)" fill-opacity="1" d=" M0,-500 C276.1419982910156,-500 500,-276.1419982910156 500,0 C500,276.1419982910156 276.1419982910156,500 0,500 C-276.1419982910156,500 -500,276.1419982910156 -500,0 C-500,-276.1419982910156 -276.1419982910156,-500 0,-500z"></path><g opacity="1" transform="matrix(1,0,0,1,0,0)"><g opacity="1" transform="matrix(1,0,0,1,0,0)"></g></g></g></g><g mask="url(#__lottie_element_538_3)" style="mix-blend-mode: color-burn; display: block;"><g filter="url(#__lottie_element_536)" transform="matrix(0.48742416501045227,-0.08822882920503616,-0.15087033808231354,-0.3442293405532837,500,500)" opacity="0.5"><path fill="url(#__lottie_element_537)" fill-opacity="1" d=" M0,-500 C276.1419982910156,-500 500,-276.1419982910156 500,0 C500,276.1419982910156 276.1419982910156,500 0,500 C-276.1419982910156,500 -500,276.1419982910156 -500,0 C-500,-276.1419982910156 -276.1419982910156,-500 0,-500z"></path><g opacity="1" transform="matrix(1,0,0,1,0,0)"><g opacity="1" transform="matrix(1,0,0,1,0,0)"></g></g></g></g><g mask="url(#__lottie_element_546_3)" style="mix-blend-mode: color-burn; display: block;"><g filter="url(#__lottie_element_544)" transform="matrix(-0.40794801712036133,-0.6177125573158264,-0.6475147604942322,0.36784082651138306,500,500)" opacity="0.5"><path fill="url(#__lottie_element_545)" fill-opacity="1" d=" M0,-500 C276.1419982910156,-500 500,-276.1419982910156 500,0 C500,276.1419982910156 276.1419982910156,500 0,500 C-276.1419982910156,500 -500,276.1419982910156 -500,0 C-500,-276.1419982910156 -276.1419982910156,-500 0,-500z"></path><g opacity="1" transform="matrix(1,0,0,1,0,0)"><g opacity="1" transform="matrix(1,0,0,1,0,0)"></g></g></g></g><g mask="url(#__lottie_element_554_3)" style="mix-blend-mode: color-burn; display: block;"><g filter="url(#__lottie_element_552)" transform="matrix(-0.4181954562664032,-0.512917160987854,-0.47634127736091614,0.4628656506538391,500,500)" opacity="0.5"><path fill="url(#__lottie_element_553)" fill-opacity="1" d=" M0,-500 C276.1419982910156,-500 500,-276.1419982910156 500,0 C500,276.1419982910156 276.1419982910156,500 0,500 C-276.1419982910156,500 -500,276.1419982910156 -500,0 C-500,-276.1419982910156 -276.1419982910156,-500 0,-500z"></path><g opacity="1" transform="matrix(1,0,0,1,0,0)"><g opacity="1" transform="matrix(1,0,0,1,0,0)"></g></g></g></g><g mask="url(#__lottie_element_562_3)" style="mix-blend-mode: color-burn; display: block;"><g filter="url(#__lottie_element_560)" transform="matrix(-0.6119111776351929,-0.03902492672204971,-0.005189752206206322,0.7880407571792603,500,500)" opacity="0.5"><path fill="url(#__lottie_element_561)" fill-opacity="1" d=" M0,-500 C276.1419982910156,-500 500,-276.1419982910156 500,0 C500,276.1419982910156 276.1419982910156,500 0,500 C-276.1419982910156,500 -500,276.1419982910156 -500,0 C-500,-276.1419982910156 -276.1419982910156,-500 0,-500z"></path><g opacity="1" transform="matrix(1,0,0,1,0,0)"><g opacity="1" transform="matrix(1,0,0,1,0,0)"></g></g></g></g><g mask="url(#__lottie_element_569_3)" style="display: block;"><g transform="matrix(0.4653705656528473,-0.6074522733688354,-0.6076485514640808,-0.4654650390148163,500,500)" opacity="1"><g opacity="1" transform="matrix(1,0,0,1,0,0)"><path fill="rgb(251,255,191)" fill-opacity="0.9998436773853527" d=" M0,-500 C276.1419982910156,-500 500,-276.1419982910156 500,0 C500,276.1419982910156 276.1419982910156,500 0,500 C-276.1419982910156,500 -500,276.1419982910156 -500,0 C-500,-276.1419982910156 -276.1419982910156,-500 0,-500z"></path><g opacity="1" transform="matrix(1,0,0,1,0,0)"></g></g></g></g><g mask="url(#__lottie_element_576_3)" style="display: block;"><g transform="matrix(0.21276193857192993,-0.27772000432014465,-0.277809739112854,-0.2128051221370697,500,500)" opacity="1"><g opacity="1" transform="matrix(1,0,0,1,0,0)"><path fill="rgb(255,255,255)" fill-opacity="0.9998436773853527" d=" M0,-500 C276.1419982910156,-500 500,-276.1419982910156 500,0 C500,276.1419982910156 276.1419982910156,500 0,500 C-276.1419982910156,500 -500,276.1419982910156 -500,0 C-500,-276.1419982910156 -276.1419982910156,-500 0,-500z"></path><g opacity="1" transform="matrix(1,0,0,1,0,0)"></g></g></g></g><g mask="url(#__lottie_element_583_3)" style="display: block;"><g transform="matrix(0.09116632491350174,-0.11900018155574799,-0.11903863400220871,-0.0911848172545433,500,500)" opacity="1"><g opacity="1" transform="matrix(1,0,0,1,0,0)"><path fill="rgb(255,255,255)" fill-opacity="0.9998436773853527" d=" M0,-500 C276.1419982910156,-500 500,-276.1419982910156 500,0 C500,276.1419982910156 276.1419982910156,500 0,500 C-276.1419982910156,500 -500,276.1419982910156 -500,0 C-500,-276.1419982910156 -276.1419982910156,-500 0,-500z"></path><g opacity="1" transform="matrix(1,0,0,1,0,0)"></g></g></g></g><g mask="url(#__lottie_element_591_3)" style="mix-blend-mode: color-burn; display: block;"><g filter="url(#__lottie_element_589)" transform="matrix(-0.4833333194255829,-0.3412207067012787,-0.3176213800907135,0.35789233446121216,500,500)" opacity="0.5"><path fill="url(#__lottie_element_590)" fill-opacity="1" d=" M0,-500 C276.1419982910156,-500 500,-276.1419982910156 500,0 C500,276.1419982910156 276.1419982910156,500 0,500 C-276.1419982910156,500 -500,276.1419982910156 -500,0 C-500,-276.1419982910156 -276.1419982910156,-500 0,-500z"></path><g opacity="1" transform="matrix(1,0,0,1,0,0)"><g opacity="1" transform="matrix(1,0,0,1,0,0)"></g></g></g></g><g mask="url(#__lottie_element_599_3)" style="mix-blend-mode: color-burn; display: block;"><g filter="url(#__lottie_element_597)" transform="matrix(0.25201931595802307,-0.5097020268440247,-0.7271957397460938,-0.30439862608909607,500,500)" opacity="0.5"><path fill="url(#__lottie_element_598)" fill-opacity="1" d=" M0,-500 C276.1419982910156,-500 500,-276.1419982910156 500,0 C500,276.1419982910156 276.1419982910156,500 0,500 C-276.1419982910156,500 -500,276.1419982910156 -500,0 C-500,-276.1419982910156 -276.1419982910156,-500 0,-500z"></path><g opacity="1" transform="matrix(1,0,0,1,0,0)"><g opacity="1" transform="matrix(1,0,0,1,0,0)"></g></g></g></g><g mask="url(#__lottie_element_607_3)" style="mix-blend-mode: color-burn; display: block;"><g filter="url(#__lottie_element_605)" transform="matrix(-0.07981467247009277,-0.7765958905220032,0.7769163250923157,-0.05956974998116493,500,500)" opacity="0.5"><path fill="url(#__lottie_element_606)" fill-opacity="1" d=" M0,-500 C276.1419982910156,-500 500,-276.1419982910156 500,0 C500,276.1419982910156 276.1419982910156,500 0,500 C-276.1419982910156,500 -500,276.1419982910156 -500,0 C-500,-276.1419982910156 -276.1419982910156,-500 0,-500z"></path><g opacity="1" transform="matrix(1,0,0,1,0,0)"><g opacity="1" transform="matrix(1,0,0,1,0,0)"></g></g></g></g><g mask="url(#__lottie_element_615_3)" style="mix-blend-mode: color-burn; display: block;"><g filter="url(#__lottie_element_613)" transform="matrix(0.2622615396976471,-0.5672463774681091,-0.4602973759174347,-0.49387237429618835,500,500)" opacity="0.5"><path fill="url(#__lottie_element_614)" fill-opacity="1" d=" M0,-500 C276.1419982910156,-500 500,-276.1419982910156 500,0 C500,276.1419982910156 276.1419982910156,500 0,500 C-276.1419982910156,500 -500,276.1419982910156 -500,0 C-500,-276.1419982910156 -276.1419982910156,-500 0,-500z"></path><g opacity="1" transform="matrix(1,0,0,1,0,0)"><g opacity="1" transform="matrix(1,0,0,1,0,0)"></g></g></g></g></g></g></svg>